<?xml version="1.0" encoding="UTF-8" standalone="no"?>
<!DOCTYPE svg PUBLIC "-//W3C//DTD SVG 1.1//EN"
 "http://www.w3.org/Graphics/SVG/1.1/DTD/svg11.dtd">
<!-- Generated by graphviz version 2.36.0 (20140111.2315)
 -->
<!-- Title: %3 Pages: 1 -->
<svg width="151pt" height="169pt"
 viewBox="0.00 0.00 151.00 169.00" xmlns="http://www.w3.org/2000/svg" xmlns:xlink="http://www.w3.org/1999/xlink">
<g id="graph0" class="graph" transform="scale(1 1) rotate(0) translate(4 165)">
<title>%3</title>
<polygon fill="white" stroke="none" points="-4,4 -4,-165 147,-165 147,4 -4,4"/>
<!-- 2 -->
<g id="node1" class="node"><title>2</title>
<ellipse fill="none" stroke="black" cx="44" cy="-128" rx="27" ry="18"/>
<text text-anchor="middle" x="8.5" y="-149.8" font-family="Times,serif" font-size="14.00">w2</text>
</g>
<!-- 2&#45;&gt;2 -->
<g id="edge2" class="edge"><title>2&#45;&gt;2</title>
<path fill="none" stroke="black" d="M69.3573,-134.921C102.717,-140.854 143,-138.547 143,-128 143,-118.483 110.2,-115.675 79.2847,-119.576"/>
<polygon fill="black" stroke="black" points="78.721,-116.122 69.3573,-121.079 79.7684,-123.043 78.721,-116.122"/>
</g>
<!-- 1 -->
<g id="node2" class="node"><title>1</title>
<ellipse fill="none" stroke="black" cx="44" cy="-18" rx="27" ry="18"/>
<text text-anchor="middle" x="44" y="-14.3" font-family="Times,serif" font-size="14.00">2</text>
<text text-anchor="middle" x="8.5" y="-39.8" font-family="Times,serif" font-size="14.00">w1</text>
</g>
<!-- 2&#45;&gt;1 -->
<g id="edge1" class="edge"><title>2&#45;&gt;1</title>
<path fill="none" stroke="black" d="M25.7819,-114.187C15.5705,-96.065 14.2643,-62.7069 21.8633,-40.687"/>
<polygon fill="black" stroke="black" points="25.1005,-42.0213 25.9813,-31.4631 18.7086,-39.1675 25.1005,-42.0213"/>
</g>
<!-- 1&#45;&gt;2 -->
<g id="edge4" class="edge"><title>1&#45;&gt;2</title>
<path fill="none" stroke="black" d="M62.0187,-31.4631C72.3454,-49.3866 73.7669,-82.7184 66.2832,-104.884"/>
<polygon fill="black" stroke="black" points="63.0151,-103.622 62.2181,-114.187 69.4294,-106.425 63.0151,-103.622"/>
</g>
<!-- 1&#45;&gt;1 -->
<g id="edge3" class="edge"><title>1&#45;&gt;1</title>
<path fill="none" stroke="black" d="M69.3573,-24.9214C102.717,-30.854 143,-28.5469 143,-18 143,-8.48309 110.2,-5.67519 79.2847,-9.57628"/>
<polygon fill="black" stroke="black" points="78.721,-6.12165 69.3573,-11.0786 79.7684,-13.0428 78.721,-6.12165"/>
</g>
</g>
</svg>
