<?xml version="1.0" encoding="UTF-8" standalone="no"?>
<!DOCTYPE svg PUBLIC "-//W3C//DTD SVG 1.1//EN"
 "http://www.w3.org/Graphics/SVG/1.1/DTD/svg11.dtd">
<!-- Generated by graphviz version 2.36.0 (20140111.2315)
 -->
<!-- Title: %3 Pages: 1 -->
<svg width="260pt" height="279pt"
 viewBox="0.00 0.00 260.00 279.00" xmlns="http://www.w3.org/2000/svg" xmlns:xlink="http://www.w3.org/1999/xlink">
<g id="graph0" class="graph" transform="scale(1 1) rotate(0) translate(4 275)">
<title>%3</title>
<polygon fill="white" stroke="none" points="-4,4 -4,-275 256,-275 256,4 -4,4"/>
<!-- 3 -->
<g id="node1" class="node"><title>3</title>
<ellipse fill="none" stroke="black" cx="153" cy="-238" rx="27" ry="18"/>
<text text-anchor="middle" x="153" y="-234.3" font-family="Times,serif" font-size="14.00">3</text>
<text text-anchor="middle" x="117.5" y="-259.8" font-family="Times,serif" font-size="14.00">w3</text>
</g>
<!-- 3&#45;&gt;3 -->
<g id="edge3" class="edge"><title>3&#45;&gt;3</title>
<path fill="none" stroke="black" d="M178.357,-244.921C211.717,-250.854 252,-248.547 252,-238 252,-228.483 219.2,-225.675 188.285,-229.576"/>
<polygon fill="black" stroke="black" points="187.721,-226.122 178.357,-231.079 188.768,-233.043 187.721,-226.122"/>
</g>
<!-- 1 -->
<g id="node2" class="node"><title>1</title>
<ellipse fill="none" stroke="black" cx="44" cy="-128" rx="27" ry="18"/>
<text text-anchor="middle" x="44" y="-124.3" font-family="Times,serif" font-size="14.00">3, 4</text>
<text text-anchor="middle" x="8.5" y="-149.8" font-family="Times,serif" font-size="14.00">w1</text>
</g>
<!-- 3&#45;&gt;1 -->
<g id="edge1" class="edge"><title>3&#45;&gt;1</title>
<path fill="none" stroke="black" d="M129.714,-228.882C101.664,-213.31 63.9331,-178.652 46.4471,-154.56"/>
<polygon fill="black" stroke="black" points="49.1956,-152.368 40.7991,-145.907 43.3336,-156.194 49.1956,-152.368"/>
</g>
<!-- 2 -->
<g id="node3" class="node"><title>2</title>
<ellipse fill="none" stroke="black" cx="153" cy="-18" rx="27" ry="18"/>
<text text-anchor="middle" x="153" y="-14.3" font-family="Times,serif" font-size="14.00">4</text>
<text text-anchor="middle" x="117.5" y="-39.8" font-family="Times,serif" font-size="14.00">w2</text>
</g>
<!-- 3&#45;&gt;2 -->
<g id="edge2" class="edge"><title>3&#45;&gt;2</title>
<path fill="none" stroke="black" d="M133.933,-225.253C134.432,-215.058 144.675,-199.532 149,-184 162.354,-136.047 162.354,-119.953 149,-72 145.891,-60.8366 139.725,-49.6758 136.318,-40.4954"/>
<polygon fill="black" stroke="black" points="139.709,-39.6285 133.933,-30.7466 132.909,-41.2919 139.709,-39.6285"/>
</g>
<!-- 1&#45;&gt;3 -->
<g id="edge9" class="edge"><title>1&#45;&gt;3</title>
<path fill="none" stroke="black" d="M67.6053,-137.295C95.6455,-152.966 133.199,-187.5 150.599,-211.503"/>
<polygon fill="black" stroke="black" points="147.826,-213.659 156.219,-220.125 153.69,-209.836 147.826,-213.659"/>
</g>
<!-- 1&#45;&gt;1 -->
<g id="edge7" class="edge"><title>1&#45;&gt;1</title>
<path fill="none" stroke="black" d="M69.3573,-134.921C102.717,-140.854 143,-138.547 143,-128 143,-118.483 110.2,-115.675 79.2847,-119.576"/>
<polygon fill="black" stroke="black" points="78.721,-116.122 69.3573,-121.079 79.7684,-123.043 78.721,-116.122"/>
</g>
<!-- 1&#45;&gt;2 -->
<g id="edge8" class="edge"><title>1&#45;&gt;2</title>
<path fill="none" stroke="black" d="M40.7812,-110.125C52.8584,-88.7425 90.1618,-52.3079 120.609,-32.609"/>
<polygon fill="black" stroke="black" points="122.65,-35.4655 129.395,-27.2953 119.027,-29.4759 122.65,-35.4655"/>
</g>
<!-- 2&#45;&gt;3 -->
<g id="edge6" class="edge"><title>2&#45;&gt;3</title>
<path fill="none" stroke="black" d="M178.822,-23.9693C200.705,-32.8682 215.55,-52.43 221,-72 234.354,-119.953 234.354,-136.047 221,-184 216.359,-200.665 204.906,-217.324 188.094,-227.398"/>
<polygon fill="black" stroke="black" points="186.203,-224.43 178.822,-232.031 189.332,-230.692 186.203,-224.43"/>
</g>
<!-- 2&#45;&gt;1 -->
<g id="edge4" class="edge"><title>2&#45;&gt;1</title>
<path fill="none" stroke="black" d="M156.201,-35.9065C144.064,-57.3662 106.568,-93.9504 76.0793,-113.592"/>
<polygon fill="black" stroke="black" points="74.0505,-110.728 67.2863,-118.882 77.6593,-116.726 74.0505,-110.728"/>
</g>
<!-- 2&#45;&gt;2 -->
<g id="edge5" class="edge"><title>2&#45;&gt;2</title>
<path fill="none" stroke="black" d="M178.357,-24.9214C211.717,-30.854 252,-28.5469 252,-18 252,-8.48309 219.2,-5.67519 188.285,-9.57628"/>
<polygon fill="black" stroke="black" points="187.721,-6.12165 178.357,-11.0786 188.768,-13.0428 187.721,-6.12165"/>
</g>
</g>
</svg>
