<?xml version="1.0" encoding="UTF-8" standalone="no"?>
<!DOCTYPE svg PUBLIC "-//W3C//DTD SVG 1.1//EN"
 "http://www.w3.org/Graphics/SVG/1.1/DTD/svg11.dtd">
<!-- Generated by graphviz version 2.36.0 (20140111.2315)
 -->
<!-- Title: %3 Pages: 1 -->
<svg width="151pt" height="169pt"
 viewBox="0.00 0.00 151.00 169.00" xmlns="http://www.w3.org/2000/svg" xmlns:xlink="http://www.w3.org/1999/xlink">
<g id="graph0" class="graph" transform="scale(1 1) rotate(0) translate(4 165)">
<title>%3</title>
<polygon fill="white" stroke="none" points="-4,4 -4,-165 147,-165 147,4 -4,4"/>
<!-- 1 -->
<g id="node1" class="node"><title>1</title>
<ellipse fill="none" stroke="black" cx="44" cy="-128" rx="27" ry="18"/>
<text text-anchor="middle" x="8.5" y="-149.8" font-family="Times,serif" font-size="14.00">w1</text>
</g>
<!-- 1&#45;&gt;1 -->
<g id="edge1" class="edge"><title>1&#45;&gt;1</title>
<path fill="none" stroke="black" d="M69.3573,-134.921C102.717,-140.854 143,-138.547 143,-128 143,-118.483 110.2,-115.675 79.2847,-119.576"/>
<polygon fill="black" stroke="black" points="78.721,-116.122 69.3573,-121.079 79.7684,-123.043 78.721,-116.122"/>
</g>
<!-- 2 -->
<g id="node2" class="node"><title>2</title>
<ellipse fill="none" stroke="black" cx="44" cy="-18" rx="27" ry="18"/>
<text text-anchor="middle" x="8.5" y="-39.8" font-family="Times,serif" font-size="14.00">w2</text>
</g>
<!-- 1&#45;&gt;2 -->
<g id="edge2" class="edge"><title>1&#45;&gt;2</title>
<path fill="none" stroke="black" d="M44,-109.648C44,-92.5643 44,-66.215 44,-46.3195"/>
<polygon fill="black" stroke="black" points="47.5001,-46.309 44,-36.309 40.5001,-46.309 47.5001,-46.309"/>
</g>
</g>
</svg>
